<?xml version="1.0" standalone="no"?>
<!DOCTYPE svg PUBLIC "-//W3C//DTD SVG 20010904//EN"
 "http://www.w3.org/TR/2001/REC-SVG-20010904/DTD/svg10.dtd">
<svg version="1.0" xmlns="http://www.w3.org/2000/svg"
 width="256.000000pt" height="256.000000pt" viewBox="0 0 256.000000 256.000000"
 preserveAspectRatio="xMidYMid meet">

<g transform="translate(0.000000,256.000000) scale(0.100000,-0.100000)"
fill="#000000" stroke="none">
<path d="M700 2550 c-186 -15 -284 -45 -395 -124 -117 -84 -212 -209 -254
-333 -42 -125 -46 -189 -46 -808 0 -617 4 -684 46 -820 46 -149 187 -306 345
-384 142 -70 357 -86 1014 -77 471 6 560 12 670 46 188 57 371 239 430 427 39
127 44 214 45 813 0 591 -4 664 -42 785 -76 242 -289 423 -549 466 -84 14
-1109 21 -1264 9z m751 -386 c112 -21 222 -65 311 -123 77 -50 148 -108 148
-121 0 -22 -181 -122 -295 -163 -288 -103 -650 -56 -904 117 -30 20 -56 35
-58 32 -2 -2 14 -31 36 -64 58 -84 108 -198 139 -311 22 -84 25 -115 25 -251
0 -135 -3 -168 -27 -255 -14 -55 -42 -134 -62 -175 -39 -84 -112 -200 -125
-200 -4 0 -28 25 -53 55 -135 167 -206 363 -206 572 0 248 90 463 265 638 125
125 283 213 451 249 92 19 253 20 355 0z m545 -335 c64 -83 119 -191 150 -294
25 -81 28 -105 28 -250 1 -183 -11 -246 -75 -383 -60 -130 -166 -269 -189
-246 -5 5 -32 47 -59 93 -183 304 -197 664 -40 986 22 44 55 102 75 128 41 56
40 56 110 -34z m337 -867 c3 7 6 0 6 -17 1 -23 4 -27 11 -15 5 8 10 11 11 5 2
-26 8 -47 23 -76 9 -17 13 -35 10 -40 -3 -5 -2 -15 3 -21 4 -7 9 -24 10 -38 9
-78 14 -137 13 -155 -1 -11 -3 -30 -4 -42 0 -13 -5 -23 -11 -23 -5 0 -3 -5 5
-10 12 -8 12 -10 1 -10 -8 0 -12 -3 -8 -6 3 -4 0 -19 -9 -35 -8 -16 -12 -29
-9 -29 8 0 -25 -61 -52 -95 -39 -50 -117 -125 -129 -125 -7 0 -14 -7 -18 -15
-3 -8 -14 -15 -25 -15 -11 0 -21 -5 -23 -10 -2 -6 -16 -13 -32 -16 -16 -3 -36
-8 -45 -13 -9 -4 -29 -7 -46 -6 -16 1 -34 -1 -40 -4 -5 -3 -30 -6 -55 -6 -27
0 -49 -6 -56 -14 -9 -11 -12 -12 -19 -1 -5 9 -4 11 3 6 7 -4 12 -3 12 2 0 9
-19 16 -80 29 -14 3 -33 6 -42 7 -10 0 -18 7 -19 16 0 8 -2 25 -3 37 -2 14 2
19 11 16 9 -4 11 0 7 11 -4 9 -1 16 6 16 9 0 10 4 2 13 -9 10 2 27 44 71 31
32 53 60 51 63 -3 2 35 42 85 88 90 83 161 176 220 287 17 32 35 58 40 58 6 0
7 7 4 16 -4 11 -2 15 8 11 9 -4 17 2 21 14 4 10 11 19 16 19 5 0 9 11 9 25 0
18 5 25 20 25 11 0 20 -6 21 -12 0 -7 5 -2 12 10 10 22 12 22 23 7 9 -12 13
-13 17 -3z m-803 -135 c52 -14 127 -39 165 -56 80 -36 215 -118 215 -131 0
-11 -66 -69 -120 -107 -140 -95 -290 -143 -475 -150 -150 -6 -234 7 -365 58
-83 32 -235 126 -279 172 l-23 25 43 32 c109 80 303 156 454 180 98 15 277 4
385 -23z m296 -689 c3 -4 -1 -5 -10 -4 -8 1 -18 5 -22 8 -3 4 1 5 10 4 8 -1
18 -5 22 -8z"/>
<path d="M1749 303 c-13 -16 -12 -17 4 -4 16 13 21 21 13 21 -2 0 -10 -8 -17
-17z"/>
</g>
</svg>
