<?xml version="1.0" standalone="no"?>
<!DOCTYPE svg PUBLIC "-//W3C//DTD SVG 20010904//EN"
 "http://www.w3.org/TR/2001/REC-SVG-20010904/DTD/svg10.dtd">
<svg version="1.0" xmlns="http://www.w3.org/2000/svg"
 width="512.000000pt" height="512.000000pt" viewBox="0 0 512.000000 512.000000"
 preserveAspectRatio="xMidYMid meet">

<g transform="translate(0.000000,512.000000) scale(0.100000,-0.100000)"
fill="#000000" stroke="none">
<path d="M1972 5050 c-221 -50 -519 -171 -730 -297 -227 -135 -497 -370 -665
-578 -144 -179 -279 -400 -361 -592 -36 -84 -38 -93 -14 -70 7 7 53 46 102 86
100 81 108 91 155 176 162 291 476 619 793 826 121 79 357 196 491 244 96 34
117 46 204 119 113 93 128 106 116 105 -4 0 -45 -9 -91 -19z"/>
<path d="M2420 4903 c-713 -49 -1350 -396 -1775 -964 -422 -564 -562 -1299
-385 -2009 42 -167 82 -276 165 -445 365 -749 1090 -1248 1925 -1325 159 -15
414 -8 570 15 668 100 1247 469 1625 1036 206 309 334 659 381 1039 27 225 12
555 -37 775 -103 465 -319 856 -659 1195 -329 329 -771 560 -1235 645 -202 37
-405 50 -575 38z m184 -726 c15 -11 17 -22 12 -58 -4 -24 -9 -86 -12 -138 -6
-86 -4 -99 21 -156 46 -109 113 -123 190 -39 52 56 78 58 105 4 52 -102 66
-212 40 -311 -6 -22 -9 -44 -6 -47 4 -3 20 5 38 18 64 47 83 -13 48 -145 -22
-81 -19 -94 20 -95 41 0 231 -132 315 -219 l39 -41 -34 -33 c-19 -18 -97 -93
-172 -166 l-137 -134 -61 56 c-112 101 -239 154 -395 163 -172 11 -318 -40
-430 -150 -53 -52 -125 -154 -125 -178 0 -4 33 -4 74 -1 50 3 76 2 81 -6 4 -7
4 -55 0 -106 l-7 -95 -99 0 c-92 0 -99 -1 -99 -20 0 -18 8 -20 98 -22 l97 -3
3 -102 3 -103 -81 0 c-44 0 -80 -4 -80 -8 0 -20 72 -119 125 -173 118 -119
258 -164 483 -156 141 5 208 19 270 57 l32 20 0 125 0 125 -192 2 -193 3 -1
228 -1 227 431 0 431 0 -3 -482 -4 -483 -31 -34 c-67 -70 -208 -151 -341 -196
-373 -125 -799 -80 -1086 115 -81 55 -198 167 -256 244 -59 78 -140 244 -156
321 l-13 60 -63 3 -62 3 0 105 0 106 53 -4 c48 -3 52 -1 55 20 3 21 0 22 -52
22 l-56 0 0 100 0 100 64 0 63 0 18 68 c55 211 227 446 426 579 l67 44 -24 69
c-41 116 -44 239 -8 275 24 24 53 18 99 -20 l42 -34 6 122 c5 134 23 204 81
323 56 115 174 222 276 250 58 16 53 16 74 1z"/>
<path d="M3803 4793 c4 -6 0 -14 -9 -17 -10 -4 -13 -2 -9 7 4 6 0 4 -8 -5 -8
-10 -16 -15 -19 -12 -3 2 -17 -9 -31 -25 -13 -16 -28 -27 -31 -24 -3 4 -6 2
-6 -3 0 -5 25 -22 56 -38 155 -81 335 -218 512 -391 400 -388 636 -861 713
-1425 17 -121 17 -477 1 -595 -87 -627 -365 -1146 -827 -1543 -319 -274 -696
-457 -1112 -542 -415 -84 -852 -56 -1268 81 -113 38 -364 159 -476 229 -370
236 -682 575 -883 962 -61 116 -146 313 -146 337 0 6 -5 11 -11 11 -5 0 -7 5
-4 10 3 6 3 15 -1 21 -4 7 -16 0 -33 -18 -14 -16 -19 -20 -11 -9 12 16 9 15
-16 -4 -17 -14 -29 -28 -27 -32 2 -5 -1 -8 -6 -8 -19 0 -12 -31 35 -149 126
-315 296 -579 529 -820 597 -617 1433 -892 2283 -750 691 115 1312 525 1704
1124 216 329 348 693 399 1100 21 165 16 494 -10 664 -44 289 -116 518 -247
781 -226 453 -546 793 -1008 1070 -22 13 -37 19 -33 13z m-37 -45 c4 -7 3 -10
-1 -5 -5 4 -18 -1 -29 -10 -21 -18 -21 -18 -2 5 22 26 23 26 32 10z"/>
</g>
</svg>
