<?xml version="1.0" standalone="no"?>
<!DOCTYPE svg PUBLIC "-//W3C//DTD SVG 20010904//EN"
 "http://www.w3.org/TR/2001/REC-SVG-20010904/DTD/svg10.dtd">
<svg version="1.0" xmlns="http://www.w3.org/2000/svg"
 width="535.000000pt" height="558.000000pt" viewBox="0 0 535.000000 558.000000"
 preserveAspectRatio="xMidYMid meet">

<g transform="translate(0.000000,558.000000) scale(0.100000,-0.100000)"
fill="#000000" stroke="none">
<path d="M3384 5091 c-89 -51 -176 -173 -284 -396 -37 -77 -78 -167 -90 -200
-13 -33 -24 -61 -25 -62 0 -1 -39 5 -85 13 -102 18 -210 13 -305 -17 -63 -19
-66 -19 -115 -2 l-51 18 -54 113 c-219 456 -449 632 -636 489 -145 -111 -340
-509 -530 -1084 l-73 -222 -53 29 -53 30 0 -82 c0 -75 21 -244 35 -280 5 -11
-4 -17 -33 -20 -78 -11 -135 -53 -101 -74 16 -9 74 -139 87 -194 6 -25 14 -73
18 -107 6 -58 5 -64 -23 -100 -109 -140 -228 -408 -267 -598 -19 -94 -35 -245
-26 -245 4 0 15 9 25 20 29 32 32 24 18 -43 -8 -34 -16 -123 -20 -198 -13
-298 62 -533 252 -783 137 -182 265 -396 265 -446 0 -9 3 -19 6 -23 12 -11 64
16 93 49 l30 34 65 -64 c138 -136 355 -248 543 -281 165 -29 171 -19 20 35
-76 27 -173 67 -216 88 -175 88 -334 220 -411 341 -25 39 -47 71 -50 71 -3 0
-4 -31 -2 -69 4 -64 -7 -111 -26 -111 -4 0 -20 26 -36 57 -36 75 -131 219
-234 358 -96 128 -161 254 -197 378 -67 235 -55 507 31 731 19 49 33 90 31 92
-1 1 -28 -20 -60 -47 -31 -28 -57 -46 -57 -40 0 21 30 149 50 215 44 141 142
336 223 445 l40 54 -7 76 c-7 87 -37 204 -67 262 -22 45 -19 59 15 59 24 0 58
-22 113 -74 40 -37 41 -29 4 59 -42 99 -88 345 -65 345 5 0 24 -9 42 -20 39
-24 42 -24 42 -4 0 9 40 137 90 284 217 652 406 1019 554 1075 133 51 298
-106 475 -454 l61 -119 -51 -7 c-57 -8 -176 -64 -205 -97 -19 -21 -19 -21 1
-13 153 60 250 69 357 31 l68 -24 62 20 c153 47 304 42 486 -17 93 -30 102
-31 85 -13 -10 11 -41 34 -70 50 l-52 29 40 96 c97 233 213 429 296 503 83 73
117 68 221 -33 167 -162 322 -429 487 -836 57 -142 165 -458 165 -485 0 -6 4
-17 9 -25 7 -11 17 -8 50 18 l41 33 0 -27 c0 -56 -35 -175 -82 -280 -27 -60
-52 -117 -55 -125 -4 -8 28 18 69 58 66 62 81 72 112 72 l36 0 -30 -42 c-37
-51 -59 -120 -67 -215 l-6 -72 50 -68 c94 -126 163 -240 233 -385 124 -253
178 -465 166 -661 -8 -142 -13 -145 -74 -34 -80 143 -79 143 -70 40 10 -101 5
-158 -23 -261 -57 -215 -182 -385 -453 -617 -195 -166 -317 -301 -385 -426
l-30 -53 -12 29 c-22 57 -20 91 18 245 4 17 -15 -1 -60 -55 -75 -91 -131 -138
-253 -212 -137 -84 -300 -141 -614 -217 l-105 -26 140 5 c255 8 527 99 714
240 40 31 74 55 75 53 1 -2 11 -23 22 -48 10 -25 39 -65 63 -89 49 -50 42 -54
76 42 42 118 210 313 410 477 132 108 247 230 320 339 73 110 106 181 141 300
13 47 26 86 27 88 2 1 20 -25 40 -58 l36 -61 20 66 c35 114 44 191 38 330 -9
196 -55 363 -162 581 -69 141 -146 269 -231 382 l-54 72 10 75 c15 121 43 172
113 207 20 11 37 23 37 28 0 16 -99 61 -139 64 -31 1 -40 6 -36 17 27 91 39
186 36 298 l-1 54 -51 -41 c-29 -23 -54 -41 -58 -41 -3 0 -21 49 -39 108 -93
296 -301 751 -441 962 -80 121 -190 244 -258 289 -61 41 -110 41 -179 2z"/>
<path d="M2816 3065 c-63 -22 -91 -57 -91 -113 0 -60 27 -99 95 -136 149 -81
317 16 255 148 -19 39 -35 47 -35 17 0 -26 -25 -44 -62 -44 -52 0 -77 62 -43
110 14 19 13 21 -17 27 -43 8 -57 7 -102 -9z"/>
<path d="M1760 3045 c0 -2 5 -15 11 -29 26 -56 -48 -103 -88 -56 -22 25 -33
10 -33 -46 0 -77 84 -127 172 -103 134 36 174 169 68 224 -26 13 -130 22 -130
10z"/>
<path d="M2092 2755 c-135 -30 -289 -130 -375 -244 -67 -89 -89 -155 -95 -283
-9 -194 54 -385 158 -482 29 -27 59 -65 67 -84 8 -20 29 -59 47 -86 32 -51 32
-51 19 -106 -21 -86 -12 -271 16 -342 93 -238 456 -334 643 -169 62 54 71 93
63 263 l-8 148 49 21 c218 96 397 301 475 544 47 145 48 147 48 95 0 -25 -4
-63 -9 -85 -5 -22 -7 -41 -6 -43 9 -8 47 70 57 116 21 88 6 117 -140 267 -69
71 -130 132 -135 134 -18 8 67 -137 115 -197 l52 -62 -22 -58 c-62 -161 -191
-311 -326 -378 -114 -56 -149 -54 -296 18 -63 31 -145 78 -184 105 l-70 48 0
73 0 73 52 18 c105 36 193 110 228 194 22 53 20 154 -5 194 -52 86 -179 129
-349 120 -165 -8 -242 -64 -265 -190 -19 -101 78 -243 210 -308 l64 -32 0 -73
c0 -72 0 -73 -37 -102 -67 -52 -195 -132 -213 -132 -31 0 -112 63 -145 114
-18 28 -46 89 -61 136 -24 74 -28 101 -28 210 -1 173 16 214 133 331 93 92
182 145 291 174 76 20 228 18 314 -4 79 -21 71 -7 -20 34 -97 44 -200 54 -312
30z m145 -941 l28 -17 -32 -66 c-72 -146 -94 -357 -54 -516 l18 -70 1 135 c1
185 28 301 99 431 l25 46 76 -44 c42 -24 103 -53 135 -65 56 -20 59 -23 53
-50 -22 -108 -29 -267 -17 -381 12 -118 12 -120 -11 -166 -19 -37 -36 -52 -83
-76 -52 -26 -69 -30 -144 -30 -159 0 -278 70 -337 197 -27 59 -29 71 -28 183
0 104 4 130 28 200 46 132 102 230 155 269 54 41 51 41 88 20z"/>
</g>
</svg>
