<?xml version="1.0" standalone="no"?>
<!DOCTYPE svg PUBLIC "-//W3C//DTD SVG 20010904//EN"
 "http://www.w3.org/TR/2001/REC-SVG-20010904/DTD/svg10.dtd">
<svg version="1.0" xmlns="http://www.w3.org/2000/svg"
 width="448.000000pt" height="484.000000pt" viewBox="0 0 448.000000 484.000000"
 preserveAspectRatio="xMidYMid meet">

<g transform="translate(0.000000,484.000000) scale(0.100000,-0.100000)"
fill="#000000" stroke="none">
<path d="M2240 3675 l0 -946 -202 163 -203 163 -5 431 -5 432 -533 -306 -532
-305 2 -840 3 -840 535 -313 535 -313 3 387 3 387 -197 193 -196 193 38 15
c22 8 199 81 394 163 l355 147 3 -1087 2 -1087 358 203 c196 111 618 351 937
533 l580 329 6 329 c3 181 7 671 7 1089 l2 760 -348 196 c-191 108 -614 348
-940 533 -326 185 -594 336 -597 336 -3 0 -5 -425 -5 -945z m960 -72 c267
-152 493 -283 503 -291 16 -14 17 -64 15 -849 l-3 -834 -450 -263 c-247 -144
-480 -279 -517 -300 l-68 -38 0 389 0 388 177 177 176 177 -34 15 c-19 9 -97
43 -174 75 l-140 60 -3 791 c-2 752 -1 792 15 786 10 -4 236 -131 503 -283z"/>
</g>
</svg>
