<svg width="17" height="17" viewBox="0 0 17 17" fill="none" xmlns="http://www.w3.org/2000/svg">
<g clip-path="url(#clip0_69_120)">
<path fill-rule="evenodd" clip-rule="evenodd" d="M8.75 16.5C13.1683 16.5 16.75 12.9183 16.75 8.5C16.75 4.08172 13.1683 0.5 8.75 0.5C4.33172 0.5 0.75 4.08172 0.75 8.5C0.75 12.9183 4.33172 16.5 8.75 16.5ZM5.40852 4.59753C5.47269 4.53593 5.55738 4.5 5.64465 4.5H13.7909C13.9398 4.5 14.0143 4.67966 13.909 4.78489L12.2998 6.39415C12.2382 6.45575 12.1535 6.49165 12.0637 6.49165H3.91735C3.76849 6.49165 3.69405 6.312 3.79928 6.20675L5.40852 4.59753ZM5.40852 10.6059C5.47012 10.5443 5.55482 10.5084 5.64465 10.5084H13.7909C13.9398 10.5084 14.0143 10.688 13.909 10.7933L12.2998 12.4024C12.2382 12.464 12.1535 12.5 12.0637 12.5H3.91735C3.76849 12.5 3.69405 12.3204 3.79928 12.2151L5.40852 10.6059ZM12.0637 7.4849C12.1535 7.4849 12.2382 7.52085 12.2998 7.58245L13.909 9.1917C14.0143 9.2969 13.9398 9.4766 13.7909 9.4766H5.64465C5.55482 9.4766 5.47012 9.44065 5.40852 9.37905L3.79928 7.7698C3.69405 7.6646 3.76849 7.4849 3.91735 7.4849H12.0637Z" fill="url(#paint0_linear_69_120)"/>
<path d="M8.75 16.5C13.1683 16.5 16.75 12.9183 16.75 8.5C16.75 4.08172 13.1683 0.5 8.75 0.5C4.33172 0.5 0.75 4.08172 0.75 8.5C0.75 12.9183 4.33172 16.5 8.75 16.5Z" fill="url(#paint1_linear_69_120)" fill-opacity="0.2"/>
</g>
<defs>
<linearGradient id="paint0_linear_69_120" x1="13.3238" y1="-36.4048" x2="-22.8767" y2="-22.8767" gradientUnits="userSpaceOnUse">
<stop stop-color="#00FFA3"/>
<stop offset="1" stop-color="#DC1FFF"/>
</linearGradient>
<linearGradient id="paint1_linear_69_120" x1="8.75" y1="0.5" x2="8.75" y2="16.5" gradientUnits="userSpaceOnUse">
<stop stop-color="white"/>
<stop offset="1" stop-color="white" stop-opacity="0"/>
</linearGradient>
<clipPath id="clip0_69_120">
<rect width="16" height="16" fill="white" transform="translate(0.75 0.5)"/>
</clipPath>
</defs>
</svg>
